<?xml version="1.0" standalone="no"?>
<!DOCTYPE svg PUBLIC "-//W3C//DTD SVG 20010904//EN"
 "http://www.w3.org/TR/2001/REC-SVG-20010904/DTD/svg10.dtd">
<svg version="1.0" xmlns="http://www.w3.org/2000/svg"
 width="2000.000000pt" height="2000.000000pt" viewBox="0 0 2000.000000 2000.000000"
 preserveAspectRatio="xMidYMid meet">

<g transform="translate(0.000000,2000.000000) scale(0.100000,-0.100000)"
fill="#000000" stroke="none">
<path d="M9480 19150 c-2289 -138 -4367 -1066 -5965 -2665 -672 -671 -1216
-1412 -1647 -2242 -89 -171 -90 -175 -72 -193 11 -10 703 -541 1538 -1180
l1519 -1161 42 118 c324 917 908 1745 1669 2369 1280 1048 2974 1453 4591
1097 774 -170 1553 -543 2171 -1041 l50 -41 1332 1332 1332 1332 -181 150
c-882 732 -1881 1296 -2934 1655 -714 243 -1401 385 -2205 456 -207 18 -1018
27 -1240 14z"/>
<path d="M10000 9895 l0 -1765 2460 0 2461 0 -7 -37 c-17 -99 -90 -366 -144
-524 -294 -874 -835 -1591 -1588 -2104 l-124 -84 84 -65 c46 -36 702 -544
1458 -1130 l1375 -1065 178 177 c310 307 541 572 797 914 1124 1498 1735 3367
1789 5468 18 700 -34 1226 -189 1928 l-12 52 -4269 0 -4269 0 0 -1765z"/>
</g>
</svg>
