<svg width="26" height="27" viewBox="0 0 26 27" fill="none" xmlns="http://www.w3.org/2000/svg">
<path opacity="0.4" d="M13.2702 14.5293V15.5368C13.2702 15.916 13.0752 16.2735 12.7393 16.4685L11.916 16.9668" stroke="#464646" stroke-width="1.95" stroke-miterlimit="10" stroke-linecap="round" stroke-linejoin="round"/>
<path d="M8.66754 24.3333H17.3342C21.6892 24.3333 22.4692 22.5892 22.6967 20.4658L23.5092 11.7992C23.8017 9.15583 23.0434 7 18.4175 7H7.5842C2.95837 7 2.20004 9.15583 2.49254 11.7992L3.30504 20.4658C3.53254 22.5892 4.31254 24.3333 8.66754 24.3333Z" stroke="#464646" stroke-width="1.95" stroke-miterlimit="10" stroke-linecap="round" stroke-linejoin="round"/>
<path opacity="0.4" d="M8.66602 7.00008V6.13342C8.66602 4.21591 8.66602 2.66675 12.1327 2.66675H13.866C17.3327 2.66675 17.3327 4.21591 17.3327 6.13342V7.00008" stroke="#464646" stroke-width="1.95" stroke-miterlimit="10" stroke-linecap="round" stroke-linejoin="round"/>
<g opacity="0.4">
<path d="M13.0013 20.217C15.3945 20.217 17.3346 18.2769 17.3346 15.8836C17.3346 13.4904 15.3945 11.5503 13.0013 11.5503C10.6081 11.5503 8.66797 13.4904 8.66797 15.8836C8.66797 18.2769 10.6081 20.217 13.0013 20.217Z" stroke="#464646" stroke-width="1.95" stroke-miterlimit="10" stroke-linecap="round" stroke-linejoin="round"/>
<path d="M23.4557 12.4167C21.5815 13.7817 19.5015 14.7351 17.3457 15.2767" stroke="#464646" stroke-width="1.95" stroke-miterlimit="10" stroke-linecap="round" stroke-linejoin="round"/>
<path d="M2.83984 12.7087C4.64901 13.9437 6.62068 14.8212 8.66818 15.3196" stroke="#464646" stroke-width="1.95" stroke-miterlimit="10" stroke-linecap="round" stroke-linejoin="round"/>
</g>
</svg>
